<svg id="Layer_1" data-name="Layer 1" xmlns="http://www.w3.org/2000/svg" xmlns:xlink="http://www.w3.org/1999/xlink" viewBox="0 0 800 230"><defs><style>.cls-1{fill:url(#linear-gradient);}.cls-2{fill:url(#linear-gradient-2);}.cls-3{fill:none;stroke:#fff;stroke-linecap:round;stroke-linejoin:round;stroke-width:7.67px;}.cls-4{fill:url(#linear-gradient-3);}.cls-5{fill:url(#linear-gradient-4);}.cls-6{fill:url(#linear-gradient-5);}.cls-7{fill:#353535;}.cls-8{fill:#ff5c47;}</style><linearGradient id="linear-gradient" x1="90.28" y1="65.85" x2="95.65" y2="70.59" gradientUnits="userSpaceOnUse"><stop offset="0" stop-color="#feb27f"/><stop offset="1" stop-color="#ff5c47"/></linearGradient><linearGradient id="linear-gradient-2" x1="5.92" y1="67.48" x2="141.24" y2="186.86" xlink:href="#linear-gradient"/><linearGradient id="linear-gradient-3" x1="92.95" y1="198.17" x2="92.98" y2="155.39" xlink:href="#linear-gradient"/><linearGradient id="linear-gradient-4" x1="165.19" y1="81.52" x2="109.99" y2="93.56" xlink:href="#linear-gradient"/><linearGradient id="linear-gradient-5" x1="7.52" y1="84.47" x2="65.25" y2="84.47" xlink:href="#linear-gradient"/></defs><ellipse class="cls-1" cx="93.9" cy="69.04" rx="3.49" ry="3.46"/><path class="cls-2" d="M141.28,117.17c-12.29-12.84-26.76-9.63-33.48-7.08,22.6-12.59,3.73-50.4,3.73-50.4l-20-38L71.24,59.32C65.87,70,63.71,78.68,63.46,85.62c12.77,4.42,20.62,16,20.62,16-2.7-15.82,5.79-28.4,5.79-28.4h0A5.77,5.77,0,0,1,88,69a5.86,5.86,0,1,1,5.86,5.81,6,6,0,0,1-1.7-.25h0c-12.71,21.16,0,40.15,0,40.15,13.54-8.93,8.66-23.7,8.66-23.7-.58-2.12.77-2.3.77-2.3,1.35-.19,1.74,2.11,1.74,2.11,5,19.67-11.57,27-11.57,27-19.29,6.56-17,22.38-17,22.38a1.81,1.81,0,0,1-1.47,1.8c-1.48-.5-1.32-1.46-1.32-1.46-1.25-17.41,14-23.49,14-23.49-23.14-1.93-29.7,13.12-29.7,13.12-.77,1.54-1.93,1.15-1.93,1.15-1.16-.77-.39-2.31-.39-2.31,9.26-18.9,34.55-14.3,34.55-14.3-7.94-16.3-17.54-23.2-25.05-26,.64,12.59,8,18.8,12.44,21.44a28.82,28.82,0,0,0-28.27,3.08C9.48,141.82,1.13,184.58,1.13,184.58,34,188.05,77.7,159.67,77.7,159.67a27.76,27.76,0,0,0,13.79-25.53c2.76,14.24,10.8,20.65,13.85,22.62,1.25.81,2.49,1.63,3.72,2.48,41.26,28.75,72.51,25.2,72.51,25.2C178.62,153.76,141.28,117.17,141.28,117.17ZM98.72,87a2.91,2.91,0,1,1,2.91-2.91A2.91,2.91,0,0,1,98.72,87ZM52.05,139.08A2.91,2.91,0,1,1,55,136.17,2.91,2.91,0,0,1,52.05,139.08Zm22.39,10.45a2.91,2.91,0,1,1,2.92-2.91A2.91,2.91,0,0,1,74.44,149.53Zm85.44,13.27s-1,1.15-2.64-1l-3.72-5s-12.3-16.13-16.18-20.8a.21.21,0,0,1,0-.06c-.49-.66-9.84-13.09-19.2-15.76l-.15,0c-.79-.15-7.69-1.36-11.71.7a1.29,1.29,0,0,1-.46.14,1.78,1.78,0,0,1-.72-.08,1.37,1.37,0,0,1-.84-1.79,1.52,1.52,0,0,1,1.08-.86s11-5.62,23.72,4.8c0,0,12.7,10.78,30.42,36.94a1,1,0,0,0,.12.16C159.84,160.48,160.9,161.79,159.88,162.8Z"/><circle class="cls-3" cx="41.29" cy="87.41" r="1.48"/><path class="cls-4" d="M93.92,149.68v25.47a1.13,1.13,0,0,1-1.16,1.15c-1.54,0-1.41-1.26-1.41-1.26V150.15c-5.68,11.08-20.87,16.38-20.89,16.39,1.21,11.13,6.15,26.58,21.8,41.82,0,0,18.31-15.71,23.23-41.24C101.24,160.06,95.9,153.4,93.92,149.68Z"/><path class="cls-5" d="M133.33,89.63s-.64,2-2.19,1.23c0,0-1.15-.39-.57-2.12,0,0,11.5-25.84,38.74-35-29.64.46-44.79,15.76-49.85,22.18.66,2.26,5,18.17-2.2,29.62,0,0,10.44-4.62,26.23,9.26h0a37.89,37.89,0,0,0,8.1-5.86C172.6,89.17,174,62,174,55.32,170.87,56,147.58,61.54,133.33,89.63Z"/><path class="cls-6" d="M65.25,105c-3.46-5.3-4.42-11.65-4.4-17.12A23.73,23.73,0,0,0,50.91,87c-2.32.39-2.32-1.54-2.32-1.54,0-1.16,2-1.37,2-1.37A29,29,0,0,1,61,84.86a50.24,50.24,0,0,1,1.52-9.47C57,68.75,40.24,52.51,7.53,54.33c0,0-1.11,32.48,23.43,54.71a38.68,38.68,0,0,0,8.22,5.71l0,0C54.71,100.55,65.25,105,65.25,105Z"/><path class="cls-7" d="M248.07,112.73V140H237.79v-5.67c-2.62,4-7.67,6.28-14.65,6.28-10.64,0-17.35-5.84-17.35-13.95,0-7.76,5.23-13.86,19.36-13.86h12v-.7c0-6.36-3.84-10.11-11.6-10.11-5.23,0-10.63,1.74-14.12,4.62l-4.27-7.93c5-3.84,12.2-5.76,19.7-5.76C240.32,92.94,248.07,99.31,248.07,112.73Zm-10.89,12.73v-5.4H225.93c-7.41,0-9.41,2.79-9.41,6.19,0,3.92,3.31,6.45,8.89,6.45C230.73,132.7,235.35,130.26,237.18,125.46Z"/><path class="cls-7" d="M290,137.49c-2.62,2.09-6.54,3.14-10.46,3.14-10.2,0-16-5.4-16-15.69V102.53h-7.68V93.82h7.68V83.18H274.4V93.82h12.47v8.71H274.4v22.15c0,4.53,2.27,7,6.45,7a9.81,9.81,0,0,0,6.11-1.92Z"/><path class="cls-7" d="M293.58,116.74c0-13.95,10.47-23.8,24.76-23.8,14.47,0,24.85,9.85,24.85,23.8s-10.38,23.89-24.85,23.89C304.05,140.63,293.58,130.69,293.58,116.74Zm38.62,0c0-8.89-5.92-14.56-13.86-14.56s-13.77,5.67-13.77,14.56,5.93,14.56,13.77,14.56S332.2,125.64,332.2,116.74Z"/><path class="cls-7" d="M431.5,113.34V140H420.6V114.74c0-8.28-3.83-12.29-10.46-12.29-7.15,0-12.12,4.7-12.12,13.94V140H387.13V114.74c0-8.28-3.84-12.29-10.46-12.29-7.24,0-12.12,4.7-12.12,13.94V140h-10.9V93.47H364v5.92c3.49-4.18,8.9-6.45,15.26-6.45,6.8,0,12.47,2.53,15.69,7.76,3.75-4.79,10-7.76,17.44-7.76C423.66,92.94,431.5,99.31,431.5,113.34Z"/><path class="cls-7" d="M444,79.26a6.63,6.63,0,0,1,7-6.54c4,0,7,2.7,7,6.27a7,7,0,0,1-13.95.27Zm1.48,14.21h10.9V140h-10.9Z"/><path class="cls-7" d="M466.81,116.74c0-13.95,10.46-23.8,25.19-23.8,9.07,0,16.31,3.75,19.88,10.81l-8.37,4.89a13.17,13.17,0,0,0-11.59-6.46c-8,0-14.13,5.58-14.13,14.56s6.11,14.56,14.13,14.56a13.16,13.16,0,0,0,11.59-6.45l8.37,4.88c-3.57,7-10.81,10.9-19.88,10.9C477.27,140.63,466.81,130.69,466.81,116.74Z"/><path class="cls-8" d="M563.84,75.33V140h-4.27V129.3c-3.58,7.06-10.46,11.07-18.66,11.07-12.81,0-22.49-9.5-22.49-23.1s9.68-23.11,22.49-23.11a20.39,20.39,0,0,1,18.57,10.9V75.33Zm-4.36,41.94c0-11.42-7.85-19.18-18.31-19.18s-18.3,7.76-18.3,19.18,7.84,19.18,18.3,19.18S559.48,128.69,559.48,117.27Z"/><path class="cls-8" d="M620.68,118.31H581.54c.43,10.81,8.37,18.14,19.26,18.14,5.76,0,11.08-2.1,14.56-6.37l2.53,2.88c-4,4.88-10.29,7.41-17.17,7.41-13.78,0-23.46-9.59-23.46-23.1s9.33-23.11,21.8-23.11,21.71,9.42,21.71,22.93C620.77,117.44,620.68,117.88,620.68,118.31Zm-39.06-3.4H616.5c-.61-9.85-7.76-16.91-17.44-16.91S582.32,105,581.62,114.91Z"/><path class="cls-8" d="M627.57,134.53l2-3.49c3.49,3,9.68,5.49,16.39,5.49,9.59,0,13.43-3.4,13.43-8.54,0-13.25-30.17-3.49-30.17-21.36,0-6.89,5.76-12.47,17.27-12.47,5.75,0,12,1.75,15.6,4.45l-2,3.49A23.47,23.47,0,0,0,646.4,98c-8.89,0-12.82,3.66-12.82,8.54,0,13.69,30.17,4,30.17,21.36,0,7.41-6.37,12.47-18,12.47C638.29,140.37,631.14,137.84,627.57,134.53Z"/><path class="cls-8" d="M674.56,80a3.59,3.59,0,0,1,3.57-3.57A3.53,3.53,0,1,1,674.56,80ZM676,94.51h4.36V140H676Z"/><path class="cls-8" d="M739.68,94.51v40.63c0,15.25-7.41,22.14-22.06,22.14-8.28,0-16.21-2.61-20.83-7.23l2.35-3.32c4.53,4.19,11.07,6.63,18.4,6.63,12.11,0,17.78-5.58,17.78-17.7V128c-3.75,6.63-10.72,10.37-18.92,10.37-12.9,0-22.66-9.15-22.66-22.14s9.76-22.06,22.66-22.06c8.37,0,15.43,3.84,19.09,10.64V94.51Zm-4.27,21.71c0-10.72-7.85-18.13-18.66-18.13s-18.57,7.41-18.57,18.13,7.85,18.22,18.57,18.22S735.41,126.94,735.41,116.22Z"/><path class="cls-8" d="M798.87,113.43V140h-4.35V113.78c0-10.29-5.5-15.69-14.74-15.69-10.72,0-17.26,6.88-17.26,17.69V140h-4.36V94.51h4.19v9.85c3-6.36,9.41-10.2,18-10.2C791.46,94.16,798.87,100.7,798.87,113.43Z"/></svg>