<svg xmlns="http://www.w3.org/2000/svg" xmlns:xlink="http://www.w3.org/1999/xlink" viewBox="0 0 1415 1080"><defs><style>.cls-1{fill:#f8898a;}.cls-2{fill:#f75570;}.cls-3{fill:#341f66;}.cls-4{fill:#844ef4;}.cls-5{fill:#fcb8ac;}.cls-6{fill:#ff8260;}.cls-7{fill:url(#linear-gradient);}.cls-8{fill:#854df4;}.cls-9{opacity:0.85;}.cls-10{fill:url(#linear-gradient-2);}.cls-11{fill:url(#linear-gradient-3);}.cls-12{fill:#fff;}.cls-13{fill:#4d22a1;}.cls-14{fill:#42b6d9;}.cls-15,.cls-19{fill:none;stroke:#fff;stroke-miterlimit:10;}.cls-16{fill:#4aa2dc;}.cls-17{fill:#5273d9;}.cls-18{fill:#bfd3d8;}.cls-19{stroke-width:3px;}.cls-20{clip-path:url(#clip-path);}.cls-21{fill:#42c1ce;}.cls-22{clip-path:url(#clip-path-2);}.cls-23{fill:#c73853;}.cls-24{fill:#1e89ac;}.cls-25{fill:#1e4d5f;}.cls-26{fill:#125c79;}.cls-27{fill:#c6c4c6;}.cls-28{clip-path:url(#clip-path-3);}.cls-29{fill:#1e033f;}.cls-30{clip-path:url(#clip-path-4);}.cls-31{fill:#a65cff;}.cls-32{clip-path:url(#clip-path-5);}.cls-33{fill:#f38183;}.cls-34{clip-path:url(#clip-path-6);}.cls-35{fill:#ff5f49;}.cls-36{clip-path:url(#clip-path-7);}.cls-37{clip-path:url(#clip-path-8);}.cls-38{fill:#6533c7;}.cls-39{fill:#e7e7e8;}.cls-40{clip-path:url(#clip-path-9);}</style><linearGradient id="linear-gradient" x1="716.28" y1="598.98" x2="831.95" y2="733.68" gradientUnits="userSpaceOnUse"><stop offset="0" stop-color="#e1dfe7"/><stop offset="0.29" stop-color="#ddd6ea"/><stop offset="0.77" stop-color="#d1bcf2"/><stop offset="0.99" stop-color="#cbaef6"/></linearGradient><linearGradient id="linear-gradient-2" x1="167.63" y1="1255.58" x2="1175.59" y2="337.03" gradientUnits="userSpaceOnUse"><stop offset="0" stop-color="#5f41c1"/><stop offset="1" stop-color="#40b4d2"/></linearGradient><linearGradient id="linear-gradient-3" x1="22.36" y1="528.77" x2="1387.07" y2="528.77" xlink:href="#linear-gradient-2"/><clipPath id="clip-path"><path class="cls-1" d="M306.77,821.67c6.8-.33,12.75-11.13,13.36-16.87s-4.29-11.54-10.9-12.9c-2.73-.56-5.61-.43-8.32-1-9.77-2.15-13.53-12.76-11.24-21.08s8.65-15.38,12.58-23.26c5.47-10.94,4.73-25.85-7.19-32.12-11.11-5.85-26.71-1.56-37.83-7.41-10-5.27-12.5-16.71-11.68-26.66s3.94-20,1.32-29.76c-4.06-15.08-23.41-25.94-41.4-23.22-6.71,1-13,3.63-19.76,4.43a36.61,36.61,0,0,1-23.24-5c-12-7.54-18.86-22.57-33.76-23.73-10.64-.82-19.73,6.32-26,13.64C95.54,625,90.11,637,97.59,645.1c4.58,5,12.7,6.78,17.5,11.6,12.69,12.72-6,34.45,5.15,48.18,9.73,12,35.45,8.81,43.21,21.82,8,13.4-11.7,28.71-7.75,43.34,2.94,10.93,17.59,16.3,30.67,18,5.91.75,12,1.1,17.51,3s10.6,5.72,11.52,10.71c.42,2.28-.05,4.63.42,6.9,1.52,7.39,11.61,10.78,20.28,12.3a214.5,214.5,0,0,0,70.65.43"/></clipPath><clipPath id="clip-path-2"><path class="cls-2" d="M239.5,815.5c-8.58-.49-16.1-16.59-16.87-25.15a18.71,18.71,0,0,1,13.77-19.23c3.45-.83,7.08-.64,10.51-1.54,12.33-3.2,17.09-19,14.18-31.44s-10.92-22.93-15.88-34.66c-6.9-16.32-6-38.55,9.08-47.9,14-8.72,33.73-2.33,47.77-11.05,12.63-7.85,15.79-24.92,14.76-39.75s-5-29.87-1.67-44.37c5.12-22.49,29.56-38.68,52.27-34.62,8.48,1.51,16.42,5.42,24.95,6.61a40.54,40.54,0,0,0,29.35-7.46c15.2-11.24,23.82-33.66,42.63-35.37,13.44-1.23,24.93,9.41,32.86,20.32,9,12.42,15.88,30.24,6.44,42.35-5.78,7.42-16,10.12-22.1,17.3-16,19,7.54,51.36-6.5,71.83-12.29,17.91-44.77,13.14-54.56,32.53-10.1,20,14.77,42.81,9.78,64.63-3.71,16.28-22.21,24.29-38.73,26.76-7.45,1.11-15.11,1.64-22.1,4.46s-13.39,8.54-14.55,16c-.53,3.4.05,6.9-.54,10.28-1.92,11-14.65,16.09-25.61,18.34a230,230,0,0,1-89.22.65"/></clipPath><clipPath id="clip-path-3"><path class="cls-3" d="M949,475s-2.63,35.48,14.19,73.24c11.91,26.75,5.34,53.11.5,66.22a112.42,112.42,0,0,0-6.85,30.87c-1.53,21.32.64,51.59,23.16,61.24,0,0,18.88,1.67,26.44-13.45L1061,598l23-36-10-17-9-11s-.5-4.07-34-35c0,0-34.52-6.89-68-16"/></clipPath><clipPath id="clip-path-4"><path class="cls-4" d="M980,840,799,755s-24-18-48-21c0,0-17-3-37,8l-28,25s-65,53.9-115.52,88.45L565,853l-33,21,9,17,7,10,7,21h32.63l8.37-6s70-18,111-48c0,0,22-15,37-33l20,11,57,52s43,38,71,68c0,0,26,30,75,29l84-3,8-3-31-69-34-80Z"/></clipPath><clipPath id="clip-path-5"><path class="cls-5" d="M1071.81,542.08,1084,562s-12.41,18.79-23,36c0,0,4.29,6,50.14-37l22.86-9,26.17,1.8s-36.46-22.1-59.31-55.45l-1.24-4.46L1077,530Z"/></clipPath><clipPath id="clip-path-6"><path class="cls-6" d="M1078.18,586.1l1.36-1.52a122.33,122.33,0,0,1,21.09-18.72L1119,553l.72-.45a34.58,34.58,0,0,1,28.94-3.44c16.88,5.59,23.93,12.89,23.93,12.89,24.6,28,24.41,71.38,24.41,71.38V765l-3,173c-1,26-14,39.3-14,39.3-42,34.29-129,14.7-129,14.7h1c-21-14-51-87-51-87a227.24,227.24,0,0,1-7-37c-2-20-14-28-14-28l24-28h17l88-5,60-11,11-22.31V676l-9.94-95.77a20.75,20.75,0,0,0-9.85-15.58l-7.53-4.59a20.42,20.42,0,0,0-14.36-2.62l-7.58,1.42a28.51,28.51,0,0,0-18.09,11.66l-6.39,9.12a70.72,70.72,0,0,0-10.48,22.6L1094,623c-1,3.79-2.17,7.09-2,11,3.15,73.12,25,78,25,78l6-1.08V761L993,790l18-8c10-18,5-45,5-45l-7.62-27.71a62,62,0,0,1-.1-32.77c2.15-7.9,5.21-15.56,8.71-19.8L1044,624c6-8,10.13-14.82,17-26l2.57-1.17A44.07,44.07,0,0,0,1078.18,586.1Z"/></clipPath><clipPath id="clip-path-7"><path class="cls-7" d="M723.38,733.69l-53.77-143.4a4.5,4.5,0,0,1,2.7-5.83L770,549.71a4.49,4.49,0,0,1,5.7,2.6L845.4,730.46a4.49,4.49,0,0,0,2.06,2.32l171.21,92a4.41,4.41,0,0,1,1.78,6.19,5.06,5.06,0,0,1-3.62,2.16,4.57,4.57,0,0,1-.83.06l-51.66-.95a4.49,4.49,0,0,1-1.83-.42L799.23,755.11a3.62,3.62,0,0,1-.43-.24c-3-1.85-38.95-23.4-70.46-18.35A4.51,4.51,0,0,1,723.38,733.69Z"/></clipPath><clipPath id="clip-path-8"><path class="cls-8" d="M793.18,872.62,713,887s-17-1.29-45,9.86L651,905l-10,7s-7,5-26,8l-133.26,5-3.16-1.62a6.37,6.37,0,0,0-3.35-.69L441,925s6.7-1.67,15.49,9.51a13.57,13.57,0,0,1,2.89,7.46c.62,8.68,1,29.59-8.37,42H441l5.37,6.9a5.48,5.48,0,0,0,4.31,2.1h24.59a9.71,9.71,0,0,0,8.47-5l.27-1s44.6,16,135.8,8L932,990.09Z"/></clipPath><clipPath id="clip-path-9"><path class="cls-3" d="M970,497s-21-57,28-72l8,11s19,28.29,55,39.14c0,0,33.7,49.14,62.35,49.5,0,0,15.32,15.84,28.49,23.6,0,0,7.16-33.24-8.84-52.24,0,0-17-19-17-34,0,0-9-70-53-88,0,0-47.24-14-82.12,6,0,0-50.88,23-41.88,95"/></clipPath></defs><g id="Layer_4" data-name="Layer 4"><g class="cls-9"><path class="cls-10" d="M1198.44,1049.65c37.57,1.36,70.12-30.14,81.92-65.83s7.34-74.51,1.37-111.62-13.36-74.94-7-112c9.33-54.44,46.63-99.15,72.06-148.18,50.9-98.09,53.37-218.8,11.34-321S1231.44,106,1130.41,61.17c-91.84-40.71-194.22-50.73-294.66-53-60.5-1.39-125.61,1.28-174.06,37.54-41.6,31.13-63.4,81.62-80.83,130.57-39.4,110.63-72.31,235.06-168.83,302C353.09,519,279.69,531.07,210.87,551.26S70.41,605.79,39.79,670.63c-20.64,43.69-19.11,95-7.79,142a370.66,370.66,0,0,0,119.08,193.83l94.08,43.28Z"/><path class="cls-11" d="M1198.44,1051.15c39.11.84,71-30.82,83.06-66,16.84-49.24,2.52-101.83-4.33-151.48-3.78-27.45-5.42-55.53,1-82.73,5.42-23.06,15.73-44.56,27.32-65.1,11.67-20.7,24.71-40.6,36.31-61.34a367,367,0,0,0,28-63.14c29.21-87.84,24.77-186.27-10.61-271.66-32.24-77.83-89-144.34-158.67-191.37C1120.27,44.1,1025.34,20.63,930,11.74,881.33,7.21,831.6,4.44,782.8,7.15c-43.47,2.41-88.3,11.41-123.54,38.49-34,26.16-54.6,65.25-70.17,104.38-15.85,39.81-28.31,80.92-43.05,121.15-28.71,78.33-66,159.5-137.54,207.61-77.3,52-174.47,55.44-258.08,92.8C114,587.87,79.09,610.37,54.9,642.7c-27.74,37.07-35.81,83.49-31.41,128.84,8.59,88.74,55.9,174,122.48,232.43,5.45,4.79,11.58,7.06,18.17,10.09l34.42,15.84,34.16,15.71c3.82,1.76,8.29,4.8,12.48,5.58,3.26.61,7.23,0,10.54,0h942.7a1.5,1.5,0,0,0,0-3H261.22c-5,0-10,.22-15,0a8.34,8.34,0,0,1-1,0c1.62.26-1.17-.65-1.82-1L218.1,1035.6l-63.09-29a29.51,29.51,0,0,1-7.72-5.44q-12.84-11.32-24.56-23.85A369.49,369.49,0,0,1,81,923.55c-24.26-38-41.86-80.6-50.52-124.89C21.17,751,23,699.33,48.9,656.9c45.87-75.28,139.57-98.55,218.91-119.54,43.95-11.62,88.48-24.08,128-47.12,34.8-20.26,63.68-48.71,86.67-81.62,47-67.33,70.19-147.93,97.16-224.54,14.66-41.66,31.12-84.74,61.49-117.74,31.9-34.67,76.35-49.83,122.21-54.65,46.65-4.91,94.56-2.26,141.24,1,50.77,3.54,101.49,10.38,150.69,23.68,86.74,23.45,165.84,69.15,226.11,136.23C1342,240,1379.67,325.68,1385.25,416.36a384.36,384.36,0,0,1-16.31,137.85,357.5,357.5,0,0,1-27.61,64.88c-11,20.2-23.61,39.51-35.15,59.43-11.23,19.4-21.58,39.52-28.09,61.05-7.15,23.68-8.4,48.23-6.33,72.78,4.38,52,22.2,104.64,11,157-8.54,39.82-40.23,79.79-84.29,78.84C1196.51,1048.11,1196.51,1051.11,1198.44,1051.15Z"/></g><path class="cls-12" d="M1133.9,1011c28.35,1,56.68,2.61,85.06,1.28,15-.7,30.2-2,44.8-5.61,9.56-2.39,20.8-5.94,27.11-14.07,4.69-6,6-14.89,7.48-22.14a170,170,0,0,0,3.15-37.79c-.45-19.28-1.73-40.6-9.24-58.6-13.45-32.23-36.73-59.7-48.52-92.71-2.35-6.58-4.36-13.63-4.14-20.68.33-10,4.27-20.51,8.08-29.68,8.71-21,21.76-39.93,34.72-58.48,12.7-18.19,25.68-36.23,35.83-56q13-25.34,24.13-51.58c16.65-39.09,30.68-79.45,40.33-120.84,9.14-39.16,15-80.33,10.23-120.51-9.66-82.12-75.08-143.57-142.18-184.5-75.44-46-159-76.51-245.08-95.25-43.69-9.51-88.16-16.52-132.84-19-16.77-.95-33-.8-49.6,1.89a399.25,399.25,0,0,0-55.78,13.79c-36.24,11.44-72.42,26-105,45.65-16,9.64-30.29,21.24-42.19,35.72-14,17-24.6,36.54-33.43,56.66-17.32,39.44-29.35,81.12-44.07,121.56-14.8,40.66-31.46,81.15-55.18,117.53C463.11,455,431,486.05,391,506.37c-44.29,22.47-93.46,32.48-141,45.66-41,11.37-82,26.11-116.56,51.46-35.21,25.82-59.4,62-65.4,105.74-6.37,46.4,4.78,94.57,22.87,137.21a338.62,338.62,0,0,0,75.81,110.73c5,4.89,10.41,11.07,16.46,14.64a91.1,91.1,0,0,0,8.4,3.86l34.25,15.76L259.68,1007c2.89,1.33,6.15,3.49,9.3,4,4.38.73,9.51,0,13.93,0h851a1.5,1.5,0,0,0,0-3H288.25c-6,0-12-.08-18,0-2.38,0-.33.49-2.44-.55-8.37-4.16-17-7.83-25.5-11.74l-37-17c-6.81-3.13-14.74-5.68-21.09-9.69-7.85-5-14.88-13.27-21.36-19.89A331.47,331.47,0,0,1,140.66,924,337,337,0,0,1,103,865.27c-21.36-42.34-35.58-91-33.45-138.76,1.11-25,7.25-49.64,19.93-71.3,10.91-18.62,26.06-34.45,43.24-47.42,73.73-55.67,170.38-56.73,251.93-95,38.57-18.09,70.73-45.39,95.82-79.71,24.28-33.21,41.63-71,56.48-109.13,15.44-39.71,27.86-80.49,42.88-120.34,15.61-41.41,36.35-83,74-108.53C684.5,74.3,720,59.7,754.91,47.71c33.53-11.52,69.22-21.76,105-20.56,44.46,1.5,88.78,8,132.32,16.86,44.08,9,87.79,20.71,130,36.28A749.41,749.41,0,0,1,1238.05,135c37.18,21.55,72.55,47.28,100.7,80,26.32,30.61,46.14,67.28,51.07,107.7,4.9,40.21-.89,81.38-10,120.56-9.73,41.73-23.89,82.46-40.76,121.82q-11,25.68-23.76,50.58c-10.06,19.53-22.92,37.34-35.47,55.32s-25.28,36.48-34,56.82c-6.19,14.38-11.37,29.75-7.63,45.39s11.82,30.09,19.59,43.92c8.62,15.34,18,30.27,26,45.92a121.57,121.57,0,0,1,8.78,20.55c3.22,10.77,4,22.57,5,33.71a198.76,198.76,0,0,1,.1,37.55,145.9,145.9,0,0,1-3.29,19.48c-1.17,4.88-2.15,10.5-4.8,14.84-5.74,9.41-19.07,12.88-29.06,15.16-15.34,3.5-31.21,4.6-46.89,5.15-26.62.93-53.17-.51-79.76-1.5C1132,1007.89,1132,1010.89,1133.9,1011Z"/><rect class="cls-13" x="148" y="986" width="1087" height="66" rx="33"/><rect class="cls-13" x="181" y="1046" width="1021" height="27" rx="13.5"/><rect class="cls-12" x="675" y="425" width="64" height="57" rx="10.33"/><path class="cls-12" d="M685.33,482l6.11,12.49a.76.76,0,0,0,1.43,0L699,482Z"/><path class="cls-1" d="M719.49,440c-6.31-4.12-12.49,3.42-12.49,3.42h0c-.17-.21-6.27-7.49-12.49-3.43a8.86,8.86,0,0,0-3,11c2,4.47,6.24,11.06,15.54,17.21h0c9.3-6.15,13.58-12.74,15.54-17.21A8.86,8.86,0,0,0,719.49,440Z"/><rect class="cls-12" x="720" y="323" width="96" height="75" rx="15.34"/><path class="cls-12" d="M766.33,398.05l7,16.3a.85.85,0,0,0,1.65,0L782,398Z"/><path class="cls-2" d="M786.12,341c-9.16-6-18.12,5-18.12,5h0c-.25-.3-9.09-10.86-18.12-5a12.85,12.85,0,0,0-4.41,15.92c2.84,6.49,9,16.05,22.53,25h0c13.48-8.91,19.69-18.47,22.53-25A12.85,12.85,0,0,0,786.12,341Z"/><rect class="cls-12" x="761" y="438" width="128" height="75" rx="12"/><path class="cls-12" d="M841.33,512.07l9.24,21.09a1.11,1.11,0,0,0,2.16,0L862,512Z"/><rect class="cls-6" x="782" y="455" width="86" height="9" rx="4.5"/><rect class="cls-6" x="782" y="471" width="86" height="9" rx="4.5"/><rect class="cls-6" x="782" y="487" width="61.06" height="9" rx="4.5"/><circle class="cls-14" cx="456.59" cy="276.26" r="55"/><circle class="cls-15" cx="462.2" cy="272.06" r="55"/><circle class="cls-16" cx="390.32" cy="386.6" r="37.5"/><circle class="cls-15" cx="387.7" cy="387.56" r="34.8"/><circle class="cls-17" cx="320.47" cy="307.67" r="21.92"/><circle class="cls-15" cx="327.7" cy="318.56" r="17.94"/><circle class="cls-12" cx="1134.5" cy="192.5" r="4"/><circle class="cls-12" cx="1135" cy="209" r="4"/><circle class="cls-12" cx="1135" cy="226" r="4"/><circle class="cls-12" cx="1135" cy="243" r="4"/><circle class="cls-12" cx="1134.5" cy="260.5" r="4"/><circle class="cls-12" cx="1135" cy="277" r="4"/><circle class="cls-12" cx="1135" cy="294" r="4"/><circle class="cls-12" cx="1135" cy="311" r="4"/><circle class="cls-12" cx="1151.5" cy="192.5" r="4"/><circle class="cls-12" cx="1152" cy="209" r="4"/><circle class="cls-12" cx="1152" cy="226" r="4"/><circle class="cls-12" cx="1152" cy="243" r="4"/><circle class="cls-12" cx="1151.5" cy="260.5" r="4"/><circle class="cls-12" cx="1152" cy="277" r="4"/><circle class="cls-12" cx="1152" cy="294" r="4"/><circle class="cls-12" cx="1152" cy="311" r="4"/><circle class="cls-12" cx="1167.5" cy="192.5" r="4"/><circle class="cls-12" cx="1168" cy="209" r="4"/><circle class="cls-12" cx="1168" cy="226" r="4"/><circle class="cls-12" cx="1168" cy="243" r="4"/><circle class="cls-12" cx="1167.5" cy="260.5" r="4"/><circle class="cls-12" cx="1168" cy="277" r="4"/><circle class="cls-12" cx="1168" cy="294" r="4"/><circle class="cls-12" cx="1168" cy="311" r="4"/><circle class="cls-12" cx="1184.5" cy="192.5" r="4"/><circle class="cls-12" cx="1185" cy="209" r="4"/><circle class="cls-12" cx="1185" cy="226" r="4"/><circle class="cls-12" cx="1185" cy="243" r="4"/><circle class="cls-12" cx="1184.5" cy="260.5" r="4"/><circle class="cls-12" cx="1185" cy="277" r="4"/><circle class="cls-12" cx="1185" cy="294" r="4"/><circle class="cls-12" cx="1185" cy="311" r="4"/><circle class="cls-18" cx="1248" cy="883.5" r="4"/><circle class="cls-18" cx="1231.5" cy="884" r="4"/><circle class="cls-18" cx="1214.5" cy="884" r="4"/><circle class="cls-18" cx="1197.5" cy="884" r="4"/><circle class="cls-18" cx="1180" cy="883.5" r="4"/><circle class="cls-18" cx="1163.5" cy="884" r="4"/><circle class="cls-18" cx="1146.5" cy="884" r="4"/><circle class="cls-18" cx="1129.5" cy="884" r="4"/><circle class="cls-18" cx="1248" cy="900.5" r="4"/><circle class="cls-18" cx="1231.5" cy="901" r="4"/><circle class="cls-18" cx="1214.5" cy="901" r="4"/><circle class="cls-18" cx="1197.5" cy="901" r="4"/><circle class="cls-18" cx="1180" cy="900.5" r="4"/><circle class="cls-18" cx="1163.5" cy="901" r="4"/><circle class="cls-18" cx="1146.5" cy="901" r="4"/><circle class="cls-18" cx="1129.5" cy="901" r="4"/><circle class="cls-18" cx="1248" cy="916.5" r="4"/><circle class="cls-18" cx="1231.5" cy="917" r="4"/><circle class="cls-18" cx="1214.5" cy="917" r="4"/><circle class="cls-18" cx="1197.5" cy="917" r="4"/><circle class="cls-18" cx="1180" cy="916.5" r="4"/><circle class="cls-18" cx="1163.5" cy="917" r="4"/><circle class="cls-18" cx="1146.5" cy="917" r="4"/><circle class="cls-18" cx="1129.5" cy="917" r="4"/><circle class="cls-18" cx="1248" cy="933.5" r="4"/><circle class="cls-18" cx="1231.5" cy="934" r="4"/><circle class="cls-18" cx="1214.5" cy="934" r="4"/><circle class="cls-18" cx="1197.5" cy="934" r="4"/><circle class="cls-18" cx="1180" cy="933.5" r="4"/><circle class="cls-18" cx="1163.5" cy="934" r="4"/><circle class="cls-18" cx="1146.5" cy="934" r="4"/><circle class="cls-18" cx="1129.5" cy="934" r="4"/><circle class="cls-12" cx="580.5" cy="660" r="4"/><circle class="cls-12" cx="563" cy="659.5" r="4"/><circle class="cls-12" cx="597.5" cy="677" r="4"/><circle class="cls-12" cx="580.5" cy="677" r="4"/><circle class="cls-12" cx="563" cy="676.5" r="4"/><circle class="cls-12" cx="546.5" cy="677" r="4"/><circle class="cls-12" cx="614.5" cy="693" r="4"/><circle class="cls-12" cx="597.5" cy="693" r="4"/><circle class="cls-12" cx="580.5" cy="693" r="4"/><circle class="cls-12" cx="563" cy="692.5" r="4"/><circle class="cls-12" cx="546.5" cy="693" r="4"/><circle class="cls-12" cx="529.5" cy="693" r="4"/><circle class="cls-12" cx="631" cy="709.5" r="4"/><circle class="cls-12" cx="614.5" cy="710" r="4"/><circle class="cls-12" cx="597.5" cy="710" r="4"/><circle class="cls-12" cx="580.5" cy="710" r="4"/><circle class="cls-12" cx="563" cy="709.5" r="4"/><circle class="cls-12" cx="546.5" cy="710" r="4"/><circle class="cls-12" cx="529.5" cy="710" r="4"/><circle class="cls-12" cx="512.5" cy="710" r="4"/><polyline class="cls-15" points="687 139.03 700.42 128.62 713.42 138.71 725.93 129 738.87 139.05 751.93 128.91 765.12 139.16 778.84 128.51 792.36 139.01 806.54 128 820.78 139.06 834.3 128.56"/><polyline class="cls-15" points="687 152.03 700.42 141.62 713.42 151.71 725.93 142 738.87 152.05 751.93 141.91 765.12 152.16 778.84 141.51 792.36 152.01 806.54 141 820.78 152.06 834.3 141.56"/><polyline class="cls-15" points="687 165.03 700.42 154.62 713.42 164.71 725.93 155 738.87 165.05 751.93 154.91 765.12 165.16 778.84 154.51 792.36 165.01 806.54 154 820.78 165.06 834.3 154.56"/><polyline class="cls-15" points="687 178.03 700.42 167.62 713.42 177.71 725.93 168 738.87 178.05 751.93 167.91 765.12 178.16 778.84 167.51 792.36 178.01 806.54 167 820.78 178.06 834.3 167.56"/><circle class="cls-19" cx="404.5" cy="872.5" r="82"/><circle class="cls-19" cx="404.5" cy="872.5" r="53"/><path class="cls-1" d="M306.77,821.67c6.8-.33,12.75-11.13,13.36-16.87s-4.29-11.54-10.9-12.9c-2.73-.56-5.61-.43-8.32-1-9.77-2.15-13.53-12.76-11.24-21.08s8.65-15.38,12.58-23.26c5.47-10.94,4.73-25.85-7.19-32.12-11.11-5.85-26.71-1.56-37.83-7.41-10-5.27-12.5-16.71-11.68-26.66s3.94-20,1.32-29.76c-4.06-15.08-23.41-25.94-41.4-23.22-6.71,1-13,3.63-19.76,4.43a36.61,36.61,0,0,1-23.24-5c-12-7.54-18.86-22.57-33.76-23.73-10.64-.82-19.73,6.32-26,13.64C95.54,625,90.11,637,97.59,645.1c4.58,5,12.7,6.78,17.5,11.6,12.69,12.72-6,34.45,5.15,48.18,9.73,12,35.45,8.81,43.21,21.82,8,13.4-11.7,28.71-7.75,43.34,2.94,10.93,17.59,16.3,30.67,18,5.91.75,12,1.1,17.51,3s10.6,5.72,11.52,10.71c.42,2.28-.05,4.63.42,6.9,1.52,7.39,11.61,10.78,20.28,12.3a214.5,214.5,0,0,0,70.65.43"/><g class="cls-20"><path class="cls-2" d="M105.59,613.56c9.75,6,19.07,12.66,28.24,19.51s18,14.11,26.71,21.62a474,474,0,0,1,48.65,48.61c1.91,2.15,3.68,4.42,5.52,6.62l2.74,3.32,2.65,3.4c1.75,2.28,3.56,4.51,5.27,6.82l5.08,7c1.68,2.34,3.24,4.75,4.87,7.12l2.41,3.58,2.29,3.65,2.3,3.65c.76,1.22,1.54,2.43,2.23,3.69l4.27,7.49a253,253,0,0,1,14.47,31.28,196.55,196.55,0,0,1,9,33.14A248.35,248.35,0,0,0,261,791.8l-3.55-7.75-.9-1.93-1-1.9-1.95-3.78-1.94-3.79c-.67-1.25-1.38-2.48-2.07-3.72-1.41-2.46-2.74-5-4.21-7.39a396.26,396.26,0,0,0-40-55c-7.33-8.67-15.11-17-23-25.13s-16.1-16.08-24.44-23.83S141.05,642.31,132.31,635,114.71,620.46,105.59,613.56Z"/></g><polygon class="cls-21" points="295 857 281 857 207 857 231.59 986.51 281 986.51 295 986.51 344.41 986.51 369 857 295 857"/><path class="cls-2" d="M239.5,815.5c-8.58-.49-16.1-16.59-16.87-25.15a18.71,18.71,0,0,1,13.77-19.23c3.45-.83,7.08-.64,10.51-1.54,12.33-3.2,17.09-19,14.18-31.44s-10.92-22.93-15.88-34.66c-6.9-16.32-6-38.55,9.08-47.9,14-8.72,33.73-2.33,47.77-11.05,12.63-7.85,15.79-24.92,14.76-39.75s-5-29.87-1.67-44.37c5.12-22.49,29.56-38.68,52.27-34.62,8.48,1.51,16.42,5.42,24.95,6.61a40.54,40.54,0,0,0,29.35-7.46c15.2-11.24,23.82-33.66,42.63-35.37,13.44-1.23,24.93,9.41,32.86,20.32,9,12.42,15.88,30.24,6.44,42.35-5.78,7.42-16,10.12-22.1,17.3-16,19,7.54,51.36-6.5,71.83-12.29,17.91-44.77,13.14-54.56,32.53-10.1,20,14.77,42.81,9.78,64.63-3.71,16.28-22.21,24.29-38.73,26.76-7.45,1.11-15.11,1.64-22.1,4.46s-13.39,8.54-14.55,16c-.53,3.4.05,6.9-.54,10.28-1.92,11-14.65,16.09-25.61,18.34a230,230,0,0,1-89.22.65"/><g class="cls-22"><path class="cls-23" d="M493.54,505.22c-12.12,10.51-23.82,21.47-35.24,32.7s-22.53,22.76-33.36,34.55a795,795,0,0,0-60.59,74.3,577.53,577.53,0,0,0-49.42,82l-5.12,10.84c-.88,1.79-1.62,3.64-2.41,5.47L305,750.55l-2.38,5.5c-.74,1.86-1.43,3.73-2.15,5.59-1.41,3.74-2.91,7.45-4.24,11.22A410.4,410.4,0,0,0,283,819a337.13,337.13,0,0,1,10.94-46.92,404.3,404.3,0,0,1,17.46-45c.79-1.85,1.68-3.65,2.57-5.47l2.64-5.43,2.66-5.42c.92-1.79,1.89-3.56,2.84-5.34,1.91-3.54,3.76-7.12,5.73-10.63l6-10.47,1.51-2.62,1.6-2.56,3.19-5.13,3.19-5.13c1.08-1.7,2.21-3.37,3.31-5.05,2.24-3.35,4.41-6.74,6.7-10l6.92-9.9q14.16-19.56,29.58-38.15t32.24-35.9q16.68-17.41,34.51-33.66C468.54,525.38,480.72,514.87,493.54,505.22Z"/></g><rect class="cls-24" x="188" y="809" width="200" height="48" rx="12"/><circle class="cls-25" cx="116" cy="1022" r="21"/><circle class="cls-25" cx="140" cy="1062" r="12"/><circle class="cls-13" cx="116" cy="1022" r="21"/><circle class="cls-13" cx="140" cy="1062" r="12"/><circle class="cls-13" cx="1266" cy="1022" r="21"/><circle class="cls-13" cx="1242" cy="1062" r="12"/></g><g id="Layer_2" data-name="Layer 2"><path class="cls-26" d="M1124.93,471.73c5.42,5.06,10.71,10.27,15.91,15.56,2.61,2.64,5.16,5.34,7.69,8l1.89,2a17.53,17.53,0,0,1,1.8,2.21,20.24,20.24,0,0,1,2.52,5.08,34.79,34.79,0,0,1,1.57,11.12,63.8,63.8,0,0,1-1.09,11.13,103.69,103.69,0,0,1-6.38,21.32c1.25-3.49,2.36-7,3.29-10.61a103,103,0,0,0,2.33-10.84,70,70,0,0,0,.94-11,34.23,34.23,0,0,0-1.6-10.8,19.22,19.22,0,0,0-2.37-4.86,16.28,16.28,0,0,0-1.7-2.12l-1.86-2.06c-2.5-2.73-5.06-5.41-7.58-8.13s-5.1-5.38-7.67-8.05Z"/><path class="cls-26" d="M965.6,692.41a44.76,44.76,0,0,0,3.79,5.7,39.08,39.08,0,0,0,4.57,5,25.56,25.56,0,0,0,11.64,6.51,22.31,22.31,0,0,0,13.2-1.2,45.44,45.44,0,0,0,11.7-7c-.85.76-1.72,1.52-2.59,2.27s-1.82,1.4-2.76,2.07a36,36,0,0,1-6.06,3.33,25.16,25.16,0,0,1-3.29,1.16,23.65,23.65,0,0,1-3.44.63,20.49,20.49,0,0,1-7-.33,25.62,25.62,0,0,1-12-6.93A38.39,38.39,0,0,1,965.6,692.41Z"/><path class="cls-26" d="M966.6,690.41a52.31,52.31,0,0,0,3.5,5.43,46.65,46.65,0,0,0,4.1,5A27.17,27.17,0,0,0,984.57,708a16.4,16.4,0,0,0,6.2,1,19.6,19.6,0,0,0,6.16-1.34,34.54,34.54,0,0,0,10.57-7.21,30.75,30.75,0,0,1-10.3,7.86,18.56,18.56,0,0,1-6.4,1.52,17.24,17.24,0,0,1-6.53-1,27,27,0,0,1-10.58-7.6A44.61,44.61,0,0,1,966.6,690.41Z"/><path class="cls-26" d="M970.47,698.49a51.07,51.07,0,0,0,5.86,2.73,45.48,45.48,0,0,0,6.11,2,27.13,27.13,0,0,0,12.62.58,16.45,16.45,0,0,0,5.79-2.43,19.66,19.66,0,0,0,4.5-4.42,34.86,34.86,0,0,0,5.1-11.74,30.85,30.85,0,0,1-4.52,12.15,18.89,18.89,0,0,1-4.61,4.7,17.34,17.34,0,0,1-6.06,2.63,27,27,0,0,1-13-.79A44.44,44.44,0,0,1,970.47,698.49Z"/><path class="cls-27" d="M405,995h58.93s4.07-1,3.07-5l-22-11-32-1Z"/><path class="cls-5" d="M535.35,880.32,477,907l8,18,70-3S556.69,894.64,535.35,880.32Z"/><path class="cls-27" d="M485,925s-4-20-17-28l-42.31,28S479,928,485,925Z"/><path class="cls-3" d="M949,475s-2.63,35.48,14.19,73.24c11.91,26.75,5.34,53.11.5,66.22a112.42,112.42,0,0,0-6.85,30.87c-1.53,21.32.64,51.59,23.16,61.24,0,0,18.88,1.67,26.44-13.45L1061,598l23-36-10-17-9-11s-.5-4.07-34-35c0,0-34.52-6.89-68-16"/><g class="cls-28"><path class="cls-29" d="M998,425s-47.69-10.26-41.59,52.12S973.5,553.5,973.5,553.5s11.11,33.64,1.41,60.35a104.89,104.89,0,0,0-6.55,32.87c-.4,14.34.86,31.74,7.9,41.64a10.18,10.18,0,0,0,10,4.09c5.29-1,14-4.39,26.19-15l62-74L1091.7,564l-14.09-30.35L976.31,482l15.76-45Z"/></g><path class="cls-4" d="M980,840,799,755s-24-18-48-21c0,0-17-3-37,8l-28,25s-65,53.9-115.52,88.45L565,853l-33,21,9,17,7,10,7,21h32.63l8.37-6s70-18,111-48c0,0,22-15,37-33l20,11,57,52s43,38,71,68c0,0,26,30,75,29l84-3,8-3-31-69-34-80Z"/><g class="cls-30"><path class="cls-31" d="M570.48,855.45S588,874,596,916l-7,14-42,1-20.41-46.67L522,861l37-12h11.15Z"/></g><path class="cls-5" d="M1071.81,542.08,1084,562s-12.41,18.79-23,36c0,0,4.29,6,50.14-37l22.86-9,26.17,1.8s-36.46-22.1-59.31-55.45l-1.24-4.46L1077,530Z"/><g class="cls-32"><path class="cls-33" d="M1074,577s49.7-32.72,49.35-52.36l-12.77-20L1068,520l-2.75,27.38Z"/></g><path class="cls-5" d="M1002,389s-45,27.66-37.84,84.23a102.15,102.15,0,0,0,32.42,62L1005,543c5.26,5.28,32,22,41,21,20-2.23,49.11-28.4,58.86-74.38,0,0-1-96.66-58.18-109.62C1046.68,380,1031,376,1002,389Z"/><path class="cls-6" d="M1078.18,586.1l1.36-1.52a122.33,122.33,0,0,1,21.09-18.72L1119,553l.72-.45a34.58,34.58,0,0,1,28.94-3.44c16.88,5.59,23.93,12.89,23.93,12.89,24.6,28,24.41,71.38,24.41,71.38V765l-3,173c-1,26-14,39.3-14,39.3-42,34.29-129,14.7-129,14.7h1c-21-14-51-87-51-87a227.24,227.24,0,0,1-7-37c-2-20-14-28-14-28l24-28h17l88-5,60-11,11-22.31V676l-9.94-95.77a20.75,20.75,0,0,0-9.85-15.58l-7.53-4.59a20.42,20.42,0,0,0-14.36-2.62l-7.58,1.42a28.51,28.51,0,0,0-18.09,11.66l-6.39,9.12a70.72,70.72,0,0,0-10.48,22.6L1094,623c-1,3.79-2.17,7.09-2,11,3.15,73.12,25,78,25,78l6-1.08V761L993,790l18-8c10-18,5-45,5-45l-7.62-27.71a62,62,0,0,1-.1-32.77c2.15-7.9,5.21-15.56,8.71-19.8L1044,624c6-8,10.13-14.82,17-26l2.57-1.17A44.07,44.07,0,0,0,1078.18,586.1Z"/><g class="cls-34"><path class="cls-35" d="M1153.44,550.83S1221,441,1201,797c0,0,.14,20.77-21.93,22.89,0,0-57.62,14.17-110,14.18a80.66,80.66,0,0,0-37.28,9c-8.53,4.44-19.07,8.38-27.82,6.92l-24,.31-10.26-34.42L1101,791l28-16,24.44-29.26L1132,615l8.39-51Z"/></g><path class="cls-5" d="M1117,712s-15,12.52-26.5-52.24a157.59,157.59,0,0,1,3.51-51.49c1.77-7.15,3.43-14.34,4.73-21.59,1.64-9.15,5.8-22.5,16.36-28.72,0,0,20.43-19,51.16,3,0,0,22.52,14.48,21.63,70.24l0,141.24S1188,784,1185,787c-1.5,1.5-2.5,4.25-3.12,6.63a13.66,13.66,0,0,1-11.79,10.28c-.66.06-1.36.09-2.09.09l-17.29,2.47a38.35,38.35,0,0,0-6.83,1.63c-7.86,2.65-29.63,9.26-54.11,10.43,0,0-78.3,4.2-103-2.17L878,751l18-1,7.08-.64a10.38,10.38,0,0,1,7.09,2L922,760l3.69.62a8.33,8.33,0,0,1,4,1.81C935.08,766.94,953,780.83,973,785h21l72-12.52,24.46-7.23s20.58-11.28,33-14.77Z"/><path class="cls-7" d="M723.38,733.69l-53.77-143.4a4.5,4.5,0,0,1,2.7-5.83L770,549.71a4.49,4.49,0,0,1,5.7,2.6L845.4,730.46a4.49,4.49,0,0,0,2.06,2.32l171.21,92a4.41,4.41,0,0,1,1.78,6.19,5.06,5.06,0,0,1-3.62,2.16,4.57,4.57,0,0,1-.83.06l-51.66-.95a4.49,4.49,0,0,1-1.83-.42L799.23,755.11a3.62,3.62,0,0,1-.43-.24c-3-1.85-38.95-23.4-70.46-18.35A4.51,4.51,0,0,1,723.38,733.69Z"/><g class="cls-36"><path class="cls-31" d="M755,555l15-4c2.35,0,2.87,3.6,3.72,5.8L843,735s0,5-8,7l-47,12,188.31,94.07L1043,840l-32.55-51L856.11,710.66,784,537l-30,3Z"/></g><path class="cls-5" d="M441,925h-15.3s-1.69,0-5.69-4c0,0-17,12.43-15,30.71S418,978,418,978l3,6h30s13.23-13,8.62-36.5C459.62,947.5,464,927,441,925Z"/><path class="cls-8" d="M793.18,872.62,713,887s-17-1.29-45,9.86L651,905l-10,7s-7,5-26,8l-133.26,5-3.16-1.62a6.37,6.37,0,0,0-3.35-.69L441,925s6.7-1.67,15.49,9.51a13.57,13.57,0,0,1,2.89,7.46c.62,8.68,1,29.59-8.37,42H441l5.37,6.9a5.48,5.48,0,0,0,4.31,2.1h24.59a9.71,9.71,0,0,0,8.47-5l.27-1s44.6,16,135.8,8L932,990.09Z"/><g class="cls-37"><path class="cls-31" d="M481.74,925S492,948,484,987l-2.26,12.45L450,997.27,435,976l-8-58.84,52.07-5.49Z"/><path class="cls-38" d="M714,876s92.15,137.85,249.07,145.92L999.58,984,809,794Z"/></g><path class="cls-39" d="M420,921s7-3,7-6l-32-15s-25-18-41-34l-14-24s-5-28-18-29c0,0-19-5-23,15s-2,47-2,47,4,31,20,55,23,50,23,50,12,33,23,29c0,0,10,1,23-8a58.24,58.24,0,0,0,25-9s6-3,10-2c0,0,5.67-2.13-2.16-10.07,0,0-16.84-16.93-12.84-37.93C406,942,409,928,420,921Z"/><path class="cls-27" d="M305.57,816.07S315,808,321,822c0,0,9,15.23,19,50.62,0,0,4,12.38,5,42.38a200.53,200.53,0,0,0,26,50s10,15,8,30a12.47,12.47,0,0,1-7.82,13s-12.44,5.82-19.31-5.09c0,0-7.88-10.91-11.88-22.91,0,0-12-37-23-50,0,0-16-24-20-55C297,875,293.15,825.13,305.57,816.07Z"/><path class="cls-21" d="M813,1021.83,676,999s-7-16.82,10.48-20.91L766,969l141.78,19.56a3.72,3.72,0,0,1,3.22,3.69v13.56a3.59,3.59,0,0,1-3.11,3.55L815,1021.86A7.11,7.11,0,0,1,813,1021.83Z"/><path class="cls-24" d="M819.18,1020.3s-7.82-7.74,0-15.52L911,992v12.81s.78,2.92-3.11,3.55Z"/><path class="cls-33" d="M1117,712s-14-49-15-86c0,0-9.48,22.88,1.76,78.44C1103.76,704.44,1111,717,1117,712Z"/><path class="cls-26" d="M976.31,391a67.91,67.91,0,0,0-10.23,9.23,80.52,80.52,0,0,0-8.42,10.87,79.27,79.27,0,0,0-10.76,25.14,87.4,87.4,0,0,0-2,27.32,123.12,123.12,0,0,0,5.31,27c-.72-2.19-1.46-4.37-2.14-6.58s-1.25-4.44-1.75-6.7l-.71-3.39c-.11-.57-.24-1.13-.34-1.7l-.26-1.71-.52-3.43c-.15-1.14-.24-2.3-.36-3.45A85.76,85.76,0,0,1,945.93,436,78.38,78.38,0,0,1,957,410.71,72,72,0,0,1,976.31,391Z"/><path class="cls-26" d="M969.74,566.66a141.92,141.92,0,0,1-2.13,26.09,98.83,98.83,0,0,1-3.1,12.76c-1.29,4.2-3.36,8.13-4.62,12.22-2.53,8.29-3,17.09-3.13,25.77q0,6.53.38,13.06c.25,4.35.61,8.7,1.15,13-.69-4.31-1.19-8.65-1.59-13s-.56-8.72-.64-13.09c0-8.72.45-17.57,3-26,1.35-4.24,3.4-8.07,4.71-12.21a113.9,113.9,0,0,0,3.2-12.63c.85-4.27,1.46-8.58,1.91-12.92S969.64,571,969.74,566.66Z"/><path class="cls-3" d="M970,497s-21-57,28-72l8,11s19,28.29,55,39.14c0,0,33.7,49.14,62.35,49.5,0,0,15.32,15.84,28.49,23.6,0,0,7.16-33.24-8.84-52.24,0,0-17-19-17-34,0,0-9-70-53-88,0,0-47.24-14-82.12,6,0,0-50.88,23-41.88,95"/><g class="cls-40"><path class="cls-29" d="M998,425s-47.69-10.26-41.59,52.12S973.5,553.5,973.5,553.5s11.11,33.64,1.41,60.35a104.89,104.89,0,0,0-6.55,32.87c-.4,14.34.86,31.74,7.9,41.64a10.18,10.18,0,0,0,10,4.09c5.29-1,14-4.39,26.19-15l62-74L1091.7,564l-14.09-30.35L976.31,482l15.76-45Z"/></g><polyline class="cls-33" points="1086 477 1092 486.42 1085 482"/><path class="cls-25" d="M1061,475.14a24.46,24.46,0,0,1-10.6.44,36.93,36.93,0,0,1-10.1-3.51,54.05,54.05,0,0,1-9-5.81,85.65,85.65,0,0,1-8-7.07A142.59,142.59,0,0,1,1009.46,443,162.81,162.81,0,0,1,998,425q2.81,4.53,5.84,8.89c2,2.92,4.08,5.79,6.24,8.6a152.35,152.35,0,0,0,13.91,16,85.14,85.14,0,0,0,7.89,7.06,60.62,60.62,0,0,0,8.77,5.86,36.58,36.58,0,0,0,9.84,3.7A25.15,25.15,0,0,0,1061,475.14Z"/><path class="cls-5" d="M1062,460.15s.93-18.21,13.93-19.12c5.78-.41,9.54,3.86,11.94,8.73a32,32,0,0,1,1.88,22.73c-1,3.72-2.53,7.55-4.53,9.51C1085.22,482,1075.93,466.52,1062,460.15Z"/><path class="cls-12" d="M898.14,988.34,896.42,987a.09.09,0,0,1,0-.06L895,977h0c-1.45-6.5-6.53-11.43-9.25-13.67a6.55,6.55,0,0,0-3.7-1.47L870,961h0c-7.94,0-13.9,5.91-14,6h0c-3.89,4.86-4.94,18.21-5,19a.05.05,0,0,1,0,0c-1.94,1.94-2.93,2-3,2h0c-2,0-3.91-1.92-4-2h0l-9-14a16.5,16.5,0,0,0-11.06-8H811c-9.92,1-13,6.92-13,7h0c-1.94,4.86-2.47,13.94-2.5,14.44,0,0,0,0,0,0a6.44,6.44,0,0,1-5.56,2.38,1.85,1.85,0,0,0-1.92,1.84V991c2,7,9,8,9,8h0c19,2,38-3.54,38-3.54,1.93-.52,8-3.24,8.46-3.45h.06c2.43.94,9.84-.85,10.43-1a.06.06,0,0,1,.07,0l1.46,1.09a11.12,11.12,0,0,0,5.82,2.17,131.19,131.19,0,0,0,33-2.3h2.73a1.92,1.92,0,0,0,1.92-1.92A2.21,2.21,0,0,0,898.14,988.34Zm-58,1.45a7.19,7.19,0,0,1-3.8,3.21s-19.63,5.8-32.64,3.14a2.25,2.25,0,0,1-1.14-.62l-1.93-1.93a4.56,4.56,0,0,1-1-1.47c-.92-2.3-3-8.71-.61-15.12a13.34,13.34,0,0,1,7-9,41.4,41.4,0,0,1,20.15-.13,2.42,2.42,0,0,1,.86.44c1.67,1.34,8.15,7,13.26,18.06A3.58,3.58,0,0,1,840.1,989.79ZM888,992s-13.36,2.42-26.68-.79c0,0-5.32-1.21-6.32-5.21,0,0-.71-11,4.14-17a14.21,14.21,0,0,1,8.86-5s8-1,15,1c0,0,5.38,1.75,7.69,9.88a99.54,99.54,0,0,1,2.87,11.68S893,992,888,992Z"/></g></svg>